<?xml version="1.0" standalone="no"?><!DOCTYPE svg PUBLIC "-//W3C//DTD SVG 1.1//EN" "http://www.w3.org/Graphics/SVG/1.1/DTD/svg11.dtd"><svg t="1533533860788" class="icon" style="" viewBox="0 0 1024 1024" version="1.1" xmlns="http://www.w3.org/2000/svg" p-id="1187" xmlns:xlink="http://www.w3.org/1999/xlink" width="200" height="200"><defs><style type="text/css"></style></defs><path d="M163.018165 262.017843a98.375 98.375 0 1 0 0.353695-196.749682 98.375 98.375 0 1 0-0.353695 196.749682Z" p-id="1188" fill="#ffffff"></path><path d="M63.427 925.848l1.063-590.246 196.75 0.354-1.063 590.246zM728.54 336.851c-96.628-0.178-146.829 38.466-172.291 72.412l0.134-72.73-196.75-0.363-1.089 590.245 196.75 0.363 0.738-400.236c14.172-26.28 44.63-54.663 110.772-54.541 0 0 73.782 0.136 73.646 73.918l-0.706 382.717 221.342 0.408 2.333-444.199c0.001 0-62.726-147.677-234.879-147.994z" p-id="1189" fill="#ffffff"></path></svg>