<?xml version="1.0" standalone="no"?><!DOCTYPE svg PUBLIC "-//W3C//DTD SVG 1.1//EN" "http://www.w3.org/Graphics/SVG/1.1/DTD/svg11.dtd"><svg t="1533533914448" class="icon" style="" viewBox="0 0 1024 1024" version="1.1" xmlns="http://www.w3.org/2000/svg" p-id="2073" xmlns:xlink="http://www.w3.org/1999/xlink" width="200" height="200"><defs><style type="text/css"></style></defs><path d="M542.165333 439.125333A128 128 0 0 1 725.333333 554.666667v128a42.666667 42.666667 0 0 1-85.333333 0v-128a42.666667 42.666667 0 0 0-85.333333 0v128a42.666667 42.666667 0 0 1-85.333334 0v-213.333334a42.666667 42.666667 0 0 1 72.832-30.208zM213.333333 810.666667h469.333334a42.666667 42.666667 0 0 1 0 85.333333H170.666667a42.666667 42.666667 0 0 1-42.666667-42.666667V170.666667a42.666667 42.666667 0 0 1 42.666667-42.666667h682.666666a42.666667 42.666667 0 0 1 42.666667 42.666667v682.666666a42.666667 42.666667 0 0 1-85.333333 0V213.333333H213.333333v597.333334z m85.333334-341.333334a42.666667 42.666667 0 0 1 85.333333 0v213.333334a42.666667 42.666667 0 0 1-85.333333 0v-213.333334z m42.666666-85.333333a42.666667 42.666667 0 1 1 0-85.333333 42.666667 42.666667 0 0 1 0 85.333333z" p-id="2074" fill="#ffffff"></path></svg>